<svg width="556" height="59" viewBox="0 0 556 59" fill="none" xmlns="http://www.w3.org/2000/svg">
<path d="M67.7248 0H3.27521C1.46636 0 0 1.438 0 3.21186V48.7881C0 50.562 1.46636 52 3.27521 52H67.7248C69.5336 52 71 50.562 71 48.7881V3.21186C71 1.438 69.5336 0 67.7248 0Z" fill="#545776"/>
<path d="M47.4049 35.838C46.3556 35.8369 45.3074 35.7682 44.2673 35.6324C43.2956 35.5167 42.3453 35.268 41.444 34.8937C40.6568 34.5765 39.9647 34.068 39.433 33.4163C38.9053 32.7083 38.6396 31.8449 38.6797 30.9688V9.72559H44.1755V19.9072L43.1209 18.1728C43.5973 17.6413 44.1879 17.2201 44.8502 16.9394C45.5338 16.6376 46.2535 16.4217 46.9922 16.2971C47.5887 16.1867 48.1933 16.1244 48.8001 16.1108C51.6081 16.1108 53.7457 16.9416 55.213 18.6032C56.6803 20.2648 57.4139 22.6929 57.4139 25.8877C57.459 27.4934 57.2037 29.0936 56.6607 30.6091C56.2276 31.7846 55.5054 32.8371 54.558 33.6732C53.6376 34.443 52.5583 35.0084 51.3941 35.3305C50.0959 35.6854 48.7525 35.8563 47.4049 35.838ZM47.3329 31.2643C48.2517 31.3083 49.1634 31.0848 49.953 30.6219C50.6041 30.1886 51.0974 29.5631 51.3614 28.8361C51.6627 27.9945 51.809 27.1071 51.7937 26.2153C51.8417 25.0694 51.65 23.9261 51.2304 22.8557C50.93 22.1065 50.3898 21.4731 49.691 21.0506C49.0016 20.6717 48.2212 20.4809 47.4311 20.4982C46.8761 20.5028 46.323 20.5631 45.7804 20.678C45.2128 20.7906 44.6668 20.99 44.1624 21.269V29.5363C44.149 29.727 44.179 29.9181 44.2504 30.0959C44.3218 30.2737 44.4327 30.4337 44.5751 30.5641C44.9035 30.8378 45.2983 31.0236 45.7215 31.1037C46.2505 31.2186 46.791 31.2747 47.3329 31.2707V31.2643Z" fill="white"/>
<path d="M13.9453 35.2855V10.6826H24.0264C28.2929 10.6826 31.4284 11.7233 33.4328 13.8045C35.4372 15.8858 36.4395 18.9478 36.4395 22.9905C36.4395 27.0246 35.4372 30.0801 33.4328 32.1571C31.4284 34.2341 28.2929 35.2726 24.0264 35.2726L13.9453 35.2855ZM20.0372 30.6797H23.3124C25.5701 30.6797 27.282 30.0651 28.4479 28.8361C29.6139 27.6027 30.1969 25.6627 30.1969 23.0033C30.1969 20.3439 29.6139 18.3397 28.4479 17.1192C27.282 15.8987 25.5723 15.282 23.3124 15.282H20.0372V30.6797Z" fill="white"/>
<path d="M34.1274 40.6493V42.2617H13.5918V40.6365L34.1274 40.6493Z" fill="white"/>
<path d="M54.6625 40.6493V42.2617H34.127V40.6365L54.6625 40.6493Z" fill="white"/>
<path d="M92.1406 38.4355C92.2904 37.2116 91.6361 36.3132 90.1777 35.7402L88.3125 35.0664L87.707 34.8223C85.8581 34.0345 85.002 32.8724 85.1387 31.3359C85.1973 30.5807 85.4642 29.9167 85.9395 29.3438C86.4147 28.7708 87.0397 28.3314 87.8145 28.0254C88.5957 27.7129 89.4225 27.5664 90.2949 27.5859C91.1348 27.6055 91.8835 27.8008 92.541 28.1719C93.2051 28.5365 93.6999 29.0378 94.0254 29.6758C94.3574 30.3138 94.4876 31.0332 94.416 31.834H93.2148C93.306 30.8704 93.0781 30.099 92.5312 29.5195C91.9909 28.9401 91.2259 28.6374 90.2363 28.6113C89.2077 28.5983 88.3255 28.8359 87.5898 29.3242C86.8607 29.806 86.444 30.4668 86.3398 31.3066C86.2552 31.9772 86.4505 32.5501 86.9258 33.0254C87.4076 33.4941 88.2409 33.9043 89.4258 34.2559C90.9362 34.7376 91.9844 35.3138 92.5703 35.9844C93.1628 36.6549 93.4199 37.4622 93.3418 38.4062C93.2702 39.1875 92.9967 39.8678 92.5215 40.4473C92.0462 41.0202 91.4115 41.4596 90.6172 41.7656C89.8229 42.0716 88.9701 42.2148 88.0586 42.1953C87.1536 42.1888 86.3366 42.0033 85.6074 41.6387C84.8848 41.2741 84.3411 40.776 83.9766 40.1445C83.6185 39.5065 83.4753 38.7708 83.5469 37.9375H84.7383C84.6406 38.9271 84.9043 39.7148 85.5293 40.3008C86.1608 40.8802 87.0234 41.1764 88.1172 41.1895C89.2109 41.2025 90.1289 40.9551 90.8711 40.4473C91.6198 39.9395 92.043 39.2689 92.1406 38.4355ZM99.2402 42.1953C98.3939 42.1823 97.6615 41.9479 97.043 41.4922C96.4245 41.0299 95.9688 40.4049 95.6758 39.6172C95.3893 38.8229 95.2884 37.9668 95.373 37.0488L95.4023 36.7168C95.4935 35.7402 95.7832 34.8125 96.2715 33.9336C96.7598 33.0482 97.3783 32.3743 98.127 31.9121C98.8757 31.4434 99.6764 31.2188 100.529 31.2383C101.317 31.2513 101.981 31.4661 102.521 31.8828C103.068 32.2995 103.465 32.8789 103.713 33.6211C103.96 34.3633 104.038 35.1836 103.947 36.082L103.869 36.7949H96.5547L96.5254 37.0293C96.4277 37.7389 96.4798 38.4193 96.6816 39.0703C96.8835 39.7148 97.2122 40.2292 97.668 40.6133C98.1302 40.9909 98.6836 41.1862 99.3281 41.1992C99.9531 41.2188 100.516 41.0983 101.018 40.8379C101.519 40.5775 101.981 40.2292 102.404 39.793L103.088 40.3496C102.613 40.9616 102.046 41.4271 101.389 41.7461C100.738 42.0586 100.021 42.2083 99.2402 42.1953ZM100.471 32.2344C99.6243 32.2018 98.8659 32.5013 98.1953 33.1328C97.5247 33.7643 97.0202 34.653 96.6816 35.7988L102.814 35.8086L102.844 35.6621C102.961 34.7376 102.798 33.9434 102.355 33.2793C101.913 32.6087 101.285 32.2604 100.471 32.2344ZM108.117 31.4336L107.766 33.2402C108.234 32.5892 108.775 32.0911 109.387 31.7461C110.005 31.3945 110.666 31.2253 111.369 31.2383C112.385 31.2643 113.124 31.6191 113.586 32.3027C114.048 32.9863 114.211 33.9271 114.074 35.125L112.922 42H111.77L112.922 35.1055C112.961 34.7344 112.967 34.3763 112.941 34.0312C112.831 32.8724 112.199 32.2767 111.047 32.2441C110.363 32.2311 109.725 32.4362 109.133 32.8594C108.54 33.276 108.02 33.9076 107.57 34.7539L106.32 42H105.168L107.004 31.4336H108.117ZM120.021 28.7285L119.553 31.4336H121.672L121.506 32.3906H119.387L118.215 39.4414L118.195 40.0469C118.195 40.7565 118.521 41.1211 119.172 41.1406C119.374 41.1471 119.689 41.1243 120.119 41.0723L120.07 42.0293C119.686 42.14 119.296 42.1888 118.898 42.1758C118.215 42.1628 117.717 41.9251 117.404 41.4629C117.092 40.9941 116.978 40.3171 117.062 39.4316L118.225 32.3906H116.33L116.506 31.4336H118.381L118.859 28.7285H120.021ZM123.557 42H122.385L124.23 31.4336H125.393L123.557 42ZM124.553 28.377C124.585 27.9538 124.865 27.6868 125.393 27.5762C125.646 27.6217 125.826 27.7031 125.93 27.8203C126.04 27.931 126.112 28.1165 126.145 28.377C126.079 28.6243 125.985 28.8066 125.861 28.9238C125.738 29.0345 125.552 29.1159 125.305 29.168C124.777 29.0898 124.527 28.8262 124.553 28.377ZM130.803 28.7285L130.334 31.4336H132.453L132.287 32.3906H130.168L128.996 39.4414L128.977 40.0469C128.977 40.7565 129.302 41.1211 129.953 41.1406C130.155 41.1471 130.471 41.1243 130.9 41.0723L130.852 42.0293C130.467 42.14 130.077 42.1888 129.68 42.1758C128.996 42.1628 128.498 41.9251 128.186 41.4629C127.873 40.9941 127.759 40.3171 127.844 39.4316L129.006 32.3906H127.111L127.287 31.4336H129.162L129.641 28.7285H130.803ZM137.229 42.1953C136.382 42.1823 135.65 41.9479 135.031 41.4922C134.413 41.0299 133.957 40.4049 133.664 39.6172C133.378 38.8229 133.277 37.9668 133.361 37.0488L133.391 36.7168C133.482 35.7402 133.771 34.8125 134.26 33.9336C134.748 33.0482 135.367 32.3743 136.115 31.9121C136.864 31.4434 137.665 31.2188 138.518 31.2383C139.305 31.2513 139.969 31.4661 140.51 31.8828C141.057 32.2995 141.454 32.8789 141.701 33.6211C141.949 34.3633 142.027 35.1836 141.936 36.082L141.857 36.7949H134.543L134.514 37.0293C134.416 37.7389 134.468 38.4193 134.67 39.0703C134.872 39.7148 135.201 40.2292 135.656 40.6133C136.118 40.9909 136.672 41.1862 137.316 41.1992C137.941 41.2188 138.505 41.0983 139.006 40.8379C139.507 40.5775 139.969 40.2292 140.393 39.793L141.076 40.3496C140.601 40.9616 140.035 41.4271 139.377 41.7461C138.726 42.0586 138.01 42.2083 137.229 42.1953ZM138.459 32.2344C137.613 32.2018 136.854 32.5013 136.184 33.1328C135.513 33.7643 135.008 34.653 134.67 35.7988L140.803 35.8086L140.832 35.6621C140.949 34.7376 140.786 33.9434 140.344 33.2793C139.901 32.6087 139.273 32.2604 138.459 32.2344ZM152.072 41.2188C152.84 41.2448 153.518 41.0332 154.104 40.584C154.696 40.1283 155.09 39.5163 155.285 38.748H156.389C156.193 39.7962 155.679 40.6426 154.846 41.2871C154.019 41.9251 153.075 42.2311 152.014 42.2051C151.161 42.1855 150.445 41.9512 149.865 41.502C149.286 41.0527 148.866 40.431 148.605 39.6367C148.352 38.8424 148.27 37.9473 148.361 36.9512L148.4 36.5312C148.479 35.8477 148.645 35.1836 148.898 34.5391C149.159 33.8945 149.504 33.3249 149.934 32.8301C150.363 32.3288 150.874 31.9349 151.467 31.6484C152.066 31.3555 152.74 31.2188 153.488 31.2383C154.569 31.2643 155.428 31.6289 156.066 32.332C156.704 33.0352 157.004 33.9271 156.965 35.0078L155.861 34.998C155.874 34.1842 155.663 33.5267 155.227 33.0254C154.79 32.5241 154.195 32.2604 153.439 32.2344C152.632 32.2083 151.919 32.4427 151.301 32.9375C150.682 33.4323 150.217 34.1322 149.904 35.0371C149.592 35.9421 149.445 36.9023 149.465 37.918C149.484 38.9661 149.719 39.7734 150.168 40.3398C150.617 40.8997 151.252 41.1927 152.072 41.2188ZM158.361 36.6191C158.479 35.597 158.791 34.6628 159.299 33.8164C159.807 32.9635 160.438 32.3158 161.193 31.873C161.955 31.4303 162.779 31.2188 163.664 31.2383C164.536 31.2513 165.279 31.4922 165.891 31.9609C166.509 32.4232 166.958 33.0579 167.238 33.8652C167.525 34.666 167.622 35.5547 167.531 36.5312L167.512 36.7168C167.316 38.3835 166.724 39.7214 165.734 40.7305C164.751 41.7396 163.57 42.2279 162.189 42.1953C161.005 42.1758 160.057 41.7396 159.348 40.8867C158.638 40.0339 158.29 38.9076 158.303 37.5078L158.332 36.9512L158.361 36.6191ZM159.494 36.9512C159.41 37.7259 159.465 38.4421 159.66 39.0996C159.862 39.7507 160.181 40.2617 160.617 40.6328C161.053 41.0039 161.597 41.1992 162.248 41.2188C162.951 41.2318 163.592 41.0527 164.172 40.6816C164.758 40.3105 165.24 39.7865 165.617 39.1094C165.995 38.4323 166.239 37.6836 166.35 36.8633L166.379 36.541C166.496 35.2845 166.301 34.2591 165.793 33.4648C165.292 32.6641 164.562 32.2539 163.605 32.2344C162.564 32.2018 161.662 32.6055 160.9 33.4453C160.145 34.2786 159.683 35.3887 159.514 36.7754L159.494 36.9512ZM171.955 31.4336L171.623 33.1523C172.574 31.8503 173.768 31.2122 175.207 31.2383C175.949 31.2513 176.564 31.4368 177.053 31.7949C177.548 32.153 177.854 32.651 177.971 33.2891C178.452 32.6315 179.012 32.1237 179.65 31.7656C180.295 31.401 180.995 31.2253 181.75 31.2383C182.753 31.2578 183.495 31.5898 183.977 32.2344C184.465 32.8724 184.667 33.7578 184.582 34.8906L184.562 35.1152L183.4 42H182.238L183.391 35.0957C183.43 34.7116 183.433 34.347 183.4 34.002C183.27 32.8496 182.613 32.2637 181.428 32.2441C180.633 32.2311 179.901 32.4915 179.23 33.0254C178.566 33.5527 178.15 34.2135 177.98 35.0078L176.77 42H175.607L176.779 35.0078C176.968 33.2109 176.307 32.2897 174.797 32.2441C174.048 32.2311 173.352 32.4655 172.707 32.9473C172.062 33.429 171.63 34.028 171.408 34.7441L170.158 42H168.996L170.832 31.4336H171.955ZM186.643 36.6191C186.76 35.597 187.072 34.6628 187.58 33.8164C188.088 32.9635 188.719 32.3158 189.475 31.873C190.236 31.4303 191.06 31.2188 191.945 31.2383C192.818 31.2513 193.56 31.4922 194.172 31.9609C194.79 32.4232 195.24 33.0579 195.52 33.8652C195.806 34.666 195.904 35.5547 195.812 36.5312L195.793 36.7168C195.598 38.3835 195.005 39.7214 194.016 40.7305C193.033 41.7396 191.851 42.2279 190.471 42.1953C189.286 42.1758 188.339 41.7396 187.629 40.8867C186.919 40.0339 186.571 38.9076 186.584 37.5078L186.613 36.9512L186.643 36.6191ZM187.775 36.9512C187.691 37.7259 187.746 38.4421 187.941 39.0996C188.143 39.7507 188.462 40.2617 188.898 40.6328C189.335 41.0039 189.878 41.1992 190.529 41.2188C191.232 41.2318 191.874 41.0527 192.453 40.6816C193.039 40.3105 193.521 39.7865 193.898 39.1094C194.276 38.4323 194.52 37.6836 194.631 36.8633L194.66 36.541C194.777 35.2845 194.582 34.2591 194.074 33.4648C193.573 32.6641 192.844 32.2539 191.887 32.2344C190.845 32.2018 189.943 32.6055 189.182 33.4453C188.426 34.2786 187.964 35.3887 187.795 36.7754L187.775 36.9512ZM206.35 42.1953C205.503 42.1823 204.771 41.9479 204.152 41.4922C203.534 41.0299 203.078 40.4049 202.785 39.6172C202.499 38.8229 202.398 37.9668 202.482 37.0488L202.512 36.7168C202.603 35.7402 202.893 34.8125 203.381 33.9336C203.869 33.0482 204.488 32.3743 205.236 31.9121C205.985 31.4434 206.786 31.2188 207.639 31.2383C208.426 31.2513 209.09 31.4661 209.631 31.8828C210.178 32.2995 210.575 32.8789 210.822 33.6211C211.07 34.3633 211.148 35.1836 211.057 36.082L210.979 36.7949H203.664L203.635 37.0293C203.537 37.7389 203.589 38.4193 203.791 39.0703C203.993 39.7148 204.322 40.2292 204.777 40.6133C205.24 40.9909 205.793 41.1862 206.438 41.1992C207.062 41.2188 207.626 41.0983 208.127 40.8379C208.628 40.5775 209.09 40.2292 209.514 39.793L210.197 40.3496C209.722 40.9616 209.156 41.4271 208.498 41.7461C207.847 42.0586 207.131 42.2083 206.35 42.1953ZM207.58 32.2344C206.734 32.2018 205.975 32.5013 205.305 33.1328C204.634 33.7643 204.13 34.653 203.791 35.7988L209.924 35.8086L209.953 35.6621C210.07 34.7376 209.908 33.9434 209.465 33.2793C209.022 32.6087 208.394 32.2604 207.58 32.2344ZM215.227 31.4336L214.875 33.2402C215.344 32.5892 215.884 32.0911 216.496 31.7461C217.115 31.3945 217.775 31.2253 218.479 31.2383C219.494 31.2643 220.233 31.6191 220.695 32.3027C221.158 32.9863 221.32 33.9271 221.184 35.125L220.031 42H218.879L220.031 35.1055C220.07 34.7344 220.077 34.3763 220.051 34.0312C219.94 32.8724 219.309 32.2767 218.156 32.2441C217.473 32.2311 216.835 32.4362 216.242 32.8594C215.65 33.276 215.129 33.9076 214.68 34.7539L213.43 42H212.277L214.113 31.4336H215.227ZM231.955 28.7285L231.486 31.4336H233.605L233.439 32.3906H231.32L230.148 39.4414L230.129 40.0469C230.129 40.7565 230.454 41.1211 231.105 41.1406C231.307 41.1471 231.623 41.1243 232.053 41.0723L232.004 42.0293C231.62 42.14 231.229 42.1888 230.832 42.1758C230.148 42.1628 229.65 41.9251 229.338 41.4629C229.025 40.9941 228.911 40.3171 228.996 39.4316L230.158 32.3906H228.264L228.439 31.4336H230.314L230.793 28.7285H231.955ZM241.203 40.6719C240.363 41.7266 239.204 42.2344 237.727 42.1953C236.73 42.1758 235.988 41.8177 235.5 41.1211C235.012 40.418 234.836 39.4447 234.973 38.2012L236.105 31.4336H237.258L236.135 38.2305C236.096 38.582 236.092 38.9303 236.125 39.2754C236.171 39.8743 236.35 40.3366 236.662 40.6621C236.975 40.9876 237.404 41.1602 237.951 41.1797C238.732 41.2122 239.455 41.0332 240.119 40.6426C240.783 40.2454 241.213 39.7279 241.408 39.0898L242.717 31.4336H243.889L242.053 42H240.92L241.203 40.6719ZM252.385 33.2207C253.4 31.873 254.598 31.2122 255.979 31.2383C256.994 31.2643 257.733 31.6191 258.195 32.3027C258.658 32.9863 258.82 33.9271 258.684 35.125L257.531 42H256.379L257.531 35.1055C257.57 34.7344 257.577 34.3763 257.551 34.0312C257.44 32.8724 256.809 32.2767 255.656 32.2441C254.973 32.2311 254.335 32.4362 253.742 32.8594C253.15 33.276 252.629 33.9076 252.18 34.7539L250.93 42H249.777L252.385 27H253.537L252.385 33.2207ZM260.803 36.6191C260.92 35.597 261.232 34.6628 261.74 33.8164C262.248 32.9635 262.88 32.3158 263.635 31.873C264.396 31.4303 265.22 31.2188 266.105 31.2383C266.978 31.2513 267.72 31.4922 268.332 31.9609C268.951 32.4232 269.4 33.0579 269.68 33.8652C269.966 34.666 270.064 35.5547 269.973 36.5312L269.953 36.7168C269.758 38.3835 269.165 39.7214 268.176 40.7305C267.193 41.7396 266.011 42.2279 264.631 42.1953C263.446 42.1758 262.499 41.7396 261.789 40.8867C261.079 40.0339 260.731 38.9076 260.744 37.5078L260.773 36.9512L260.803 36.6191ZM261.936 36.9512C261.851 37.7259 261.906 38.4421 262.102 39.0996C262.303 39.7507 262.622 40.2617 263.059 40.6328C263.495 41.0039 264.038 41.1992 264.689 41.2188C265.393 41.2318 266.034 41.0527 266.613 40.6816C267.199 40.3105 267.681 39.7865 268.059 39.1094C268.436 38.4323 268.68 37.6836 268.791 36.8633L268.82 36.541C268.938 35.2845 268.742 34.2591 268.234 33.4648C267.733 32.6641 267.004 32.2539 266.047 32.2344C265.005 32.2018 264.104 32.6055 263.342 33.4453C262.587 34.2786 262.124 35.3887 261.955 36.7754L261.936 36.9512ZM276.76 31.2285C277.391 31.248 277.967 31.3978 278.488 31.6777C279.009 31.9577 279.419 32.3841 279.719 32.957L280.08 31.4336H281.164L279.387 41.8145C279.263 42.6999 278.983 43.4811 278.547 44.1582C278.111 44.8353 277.551 45.3529 276.867 45.7109C276.19 46.0755 275.435 46.2448 274.602 46.2188C273.938 46.2057 273.303 46.0397 272.697 45.7207C272.085 45.3952 271.594 44.9427 271.223 44.3633L271.945 43.6797C272.616 44.6888 273.492 45.2064 274.572 45.2324C275.536 45.2585 276.34 44.9655 276.984 44.3535C277.635 43.748 278.046 42.9212 278.215 41.873L278.469 40.6426C277.531 41.7168 276.402 42.2344 275.08 42.1953C274.09 42.1693 273.319 41.7917 272.766 41.0625C272.219 40.3268 271.932 39.3275 271.906 38.0645C271.867 36.8991 272.062 35.7467 272.492 34.6074C272.922 33.4681 273.505 32.6152 274.24 32.0488C274.982 31.4759 275.822 31.2025 276.76 31.2285ZM273.127 36.8926L273.068 37.8008C273.049 38.8685 273.234 39.6953 273.625 40.2812C274.016 40.8607 274.592 41.1634 275.354 41.1895C276.005 41.2155 276.613 41.0625 277.18 40.7305C277.746 40.3984 278.234 39.9069 278.645 39.2559L279.475 34.3242C279.299 33.6927 278.993 33.1947 278.557 32.8301C278.127 32.459 277.574 32.2637 276.896 32.2441C275.9 32.2116 275.074 32.5957 274.416 33.3965C273.765 34.1973 273.335 35.3626 273.127 36.8926ZM288.928 42C288.895 41.7526 288.885 41.5052 288.898 41.2578L288.986 40.5254C288.498 41.0527 287.938 41.4661 287.307 41.7656C286.682 42.0651 286.005 42.2083 285.275 42.1953C284.383 42.1823 283.658 41.9023 283.098 41.3555C282.544 40.8021 282.297 40.1087 282.355 39.2754C282.408 38.5788 282.645 37.9766 283.068 37.4688C283.498 36.9544 284.107 36.5573 284.895 36.2773C285.682 35.9909 286.564 35.8477 287.541 35.8477L289.699 35.8574L289.875 34.6465C289.953 33.9238 289.797 33.3444 289.406 32.9082C289.016 32.472 288.439 32.2409 287.678 32.2148C286.91 32.2018 286.239 32.3939 285.666 32.791C285.1 33.1816 284.745 33.6992 284.602 34.3438H283.459C283.589 33.4193 284.064 32.6673 284.885 32.0879C285.705 31.502 286.675 31.2155 287.795 31.2285C288.882 31.2546 289.719 31.5833 290.305 32.2148C290.897 32.8464 291.138 33.6667 291.027 34.6758L290.148 39.9883L290.07 40.8379C290.051 41.1895 290.077 41.5378 290.148 41.8828L290.129 42H288.928ZM285.471 41.1699C286.187 41.196 286.87 41.0267 287.521 40.6621C288.179 40.291 288.723 39.7669 289.152 39.0898L289.553 36.7559L287.688 36.7461C286.503 36.7461 285.536 36.9577 284.787 37.3809C284.038 37.7975 283.625 38.3965 283.547 39.1777C283.488 39.7507 283.638 40.2227 283.996 40.5938C284.361 40.9648 284.852 41.1569 285.471 41.1699ZM299.299 32.4199C299.045 32.3678 298.788 32.3385 298.527 32.332C297.785 32.332 297.105 32.5599 296.486 33.0156C295.868 33.4648 295.454 34.0378 295.246 34.7344L293.996 42H292.844L294.68 31.4336H295.822L295.471 33.1133C295.855 32.4883 296.317 32.013 296.857 31.6875C297.404 31.362 298.003 31.2057 298.654 31.2188C298.882 31.2188 299.149 31.2643 299.455 31.3555L299.299 32.4199Z" fill="#545776"/>
</svg>
